# xmcd CD database file
#
# Track frame offsets:
#	150
#	23597
#	40645
#	56347
#	69895
#	84437
#	97010
#	127237
#
# Disc length: 2702 seconds
#
# Revision: 1
# Processed by: cddbd v1.5.1PL0 Copyright (c) Steve Scherf et al.
# Submitted via: CDex 1.51
#
DISCID=5c0a8c08
DTITLE=Scoobie Do - Plus One More
DYEAR=2005
DGENRE=Funk
TTITLE0=Plus One More
TTITLE1=Sister
TTITLE2=Slogan
TTITLE3=The Chance
TTITLE4=Good Moanin'
TTITLE5=Party Dawn
TTITLE6=Tighten Up
TTITLE7=DataTrack
EXTD=YEAR: 2005
EXTT0=
EXTT1=
EXTT2=
EXTT3=
EXTT4=
EXTT5=
EXTT6=
EXTT7=
PLAYORDER=
